:FULLY-SPECIFIED
:FORCE-ALL-JOINTS-BE-3DOF
:DEGREES
1733
root -5.28934 15.6122 27.1893 -173.988 1.76275 -172.279
lfemur -41.4407 9.02726 -14.296
ltibia 58.1861 -0 0
lfoot -17.0212 25.0914 -0.183148
ltoes -15.7301 0 0
rfemur -25.4432 -16.1278 17.2162
rtibia 62.7158 -0 0
rfoot -10.6674 -24.6237 -0.00849363
rtoes 9.27421 -0 0
lowerback 16.3794 3.5052 -6.96785
upperback -0.379922 3.47527 1.30523
thorax -10.1058 2.08096 4.45595
lowerneck 4.75713 -15.4754 -17.1806
upperneck -3.13398 -21.8948 23.8239
head 2.99174 -11.1986 8.97738
lclavicle 6.02815e-14 3.18055e-14 0
lhumerus -54.4404 -34.4454 115.153
lradius 99.3353 -0 0
lwrist 42.8982 0 0
lhand -3.04759 34.7678 -0.0182693
lfingers 7.12502 -0 0
lthumb 22.6683 63.4562 -0.0175978
rclavicle 6.02815e-14 3.18055e-14 0
rhumerus 18.21 42.0133 -38.2921
rradius 117.423 -0 0
rwrist -13.9938 0 0
rhand 5.51397 -28.9397 0.0934333
rfingers 7.12502 -0 0
rthumb 30.8483 -56.2618 0.126278
1734
root -5.24881 15.6117 27.2297 -174.039 5.3618 -172.325
lfemur -40.5424 7.06159 -12.9548
ltibia 57.9077 -0 0
lfoot -16.7731 23.6329 -0.17713
ltoes -17.8347 0 0
rfemur -25.8947 -16.675 17.6426
rtibia 61.6431 -0 0
rfoot -11.1095 -24.5859 -0.00821531
rtoes 8.64586 -0 0
lowerback 16.5211 3.82178 -7.16683
upperback -0.305377 3.83353 0.987375
thorax -10.1439 2.25605 4.11853
lowerneck 4.55999 -15.3813 -17.2135
upperneck -2.9521 -21.7262 23.8125
head 3.0457 -11.0781 8.97985
lclavicle 6.02815e-14 3.18055e-14 0
lhumerus -55.9955 -32.1832 114.241
lradius 100.038 -0 0
lwrist 42.8836 0 0
lhand -3.01468 33.6726 -0.0176698
lfingers 7.12502 -0 0
lthumb 22.6998 62.3572 -0.0170203
rclavicle 6.02815e-14 3.18055e-14 0
rhumerus 12.502 41.7937 -41.5343
rradius 116.589 -0 0
rwrist -13.1472 0 0
rhand 4.86787 -29.2247 0.0903703
rfingers 7.12502 -0 0
rthumb 30.2325 -56.666 0.122138
1735
root -5.21225 15.6105 27.2659 -174.092 8.87173 -172.373
lfemur -39.7143 5.12527 -11.6815
ltibia 57.6361 -0 0
lfoot -16.5315 22.2106 -0.165181
ltoes -19.8871 0 0
rfemur -26.3404 -17.2056 18.0639
rtibia 60.597 -0 0
rfoot -11.5407 -24.5489 -0.0076626
rtoes 8.03306 -0 0
lowerback 16.6584 4.13099 -7.3602
upperback -0.234567 4.18332 0.677701
thorax -10.1821 2.42659 3.78932
lowerneck 4.36776 -15.2897 -17.2459
upperneck -2.77496 -21.5616 23.802
head 3.0983 -10.9607 8.98237
lclavicle 6.02815e-14 3.18055e-14 0
lhumerus -57.5169 -29.9977 113.304
lradius 100.723 -0 0
lwrist 42.8693 0 0
lhand -2.9826 32.6045 -0.0164794
lfingers 7.12502 -0 0
lthumb 22.7306 61.2854 -0.0158737
rclavicle 6.02815e-14 3.18055e-14 0
rhumerus 6.98831 41.3504 -44.6369
rradius 115.775 -0 0
rwrist -12.3215 0 0
rhand 4.23779 -29.5026 0.0842879
rfingers 7.12502 -0 0
rthumb 29.632 -57.0602 0.113917
1736
root -5.17966 15.6087 27.298 -174.146 12.2391 -172.424
lfemur -38.9624 3.25103 -10.4893
ltibia 57.3756 -0 0
lfoot -16.2999 20.8461 -0.148082
ltoes -21.8562 0 0
rfemur -26.7731 -17.7116 18.4734
rtibia 59.5934 -0 0
rfoot -11.9543 -24.5135 -0.00687129
rtoes 7.44515 -0 0
lowerback 16.7891 4.42807 -7.5451
upperback -0.168384 4.51926 0.380875
thorax -10.2196 2.59 3.47332
lowerneck 4.18336 -15.2019 -17.2772
upperneck -2.60524 -21.4037 23.7924
head 3.14876 -10.8479 8.98489
lclavicle 6.02815e-14 3.18055e-14 0
lhumerus -58.9846 -27.9217 112.362
lradius 101.381 -0 0
lwrist 42.8557 0 0
lhand -2.95186 31.5799 -0.0147756
lfingers 7.12502 -0 0
lthumb 22.7602 60.2571 -0.0142324
rclavicle 6.02815e-14 3.18055e-14 0
rhumerus 1.77867 40.7188 -47.5234
rradius 114.995 -0 0
rwrist -11.5294 0 0
rhand 3.63333 -29.7691 0.0755804
rfingers 7.12502 -0 0
rthumb 29.056 -57.4382 0.102148
1737
root -5.151 15.6066 27.3261 -174.201 15.4104 -172.474
lfemur -38.291 1.47211 -9.39061
ltibia 57.1303 -0 0
lfoot -16.0823 19.5611 -0.126942
ltoes -23.7107 0 0
rfemur -27.1852 -18.1855 18.8637
rtibia 58.6482 -0 0
rfoot -12.3439 -24.4802 -0.00589233
rtoes 6.89146 -0 0
lowerback 16.9114 4.70825 -7.71868
upperback -0.107623 4.83595 0.10155
thorax -10.2557 2.7437 3.17559
lowerneck 4.00972 -15.1193 -17.307
upperneck -2.44558 -21.255 23.7839
head 3.19626 -10.7418 8.98735
lclavicle 6.02815e-14 3.18055e-14 0
lhumerus -60.3769 -25.9865 111.437
lradius 102 -0 0
lwrist 42.8428 0 0
lhand -2.92293 30.6148 -0.0126683
lfingers 7.12502 -0 0
lthumb 22.7879 59.2887 -0.0122026
rclavicle 6.02815e-14 3.18055e-14 0
rhumerus -3.03327 39.9472 -50.1351
rradius 114.259 -0 0
rwrist -10.7834 0 0
rhand 3.06409 -30.0201 0.064809
rfingers 7.12502 -0 0
rthumb 28.5136 -57.7941 0.08759
1738
root -5.12624 15.6043 27.3503 -174.254 18.3322 -172.525
lfemur -37.7029 -0.177914 -8.39719
ltibia 56.9042 -0 0
lfoot -15.8823 18.3772 -0.103149
ltoes -25.4194 0 0
rfemur -27.5689 -18.6196 19.2275
rtibia 57.7773 -0 0
rfoot -12.7028 -24.4495 -0.00478974
rtoes 6.38131 -0 0
lowerback 17.0233 4.96672 -7.87814
upperback -0.0529867 5.128 -0.155625
thorax -10.2898 2.88515 2.90114
lowerneck 3.84975 -15.0433 -17.3347
upperneck -2.29865 -21.118 23.7764
head 3.24002 -10.644 8.9897
lclavicle 6.02815e-14 3.18055e-14 0
lhumerus -61.6707 -24.2218 110.552
lradius 102.57 -0 0
lwrist 42.8309 0 0
lhand -2.89631 29.7257 -0.0102958
lfingers 7.12502 -0 0
lthumb 22.8135 58.3964 -0.00991729
rclavicle 6.02815e-14 3.18055e-14 0
rhumerus -7.37079 39.0922 -52.432
rradius 113.582 -0 0
rwrist -10.096 0 0
rhand 2.53967 -30.2511 0.0526788
rfingers 7.12502 -0 0
rthumb 28.0139 -58.1219 0.0711952
